<?xml version="1.0" encoding="UTF-8" standalone="no"?>
<svg
   xmlns:dc="http://purl.org/dc/elements/1.1/"
   xmlns:cc="http://creativecommons.org/ns#"
   xmlns:rdf="http://www.w3.org/1999/02/22-rdf-syntax-ns#"
   xmlns:svg="http://www.w3.org/2000/svg"
   xmlns="http://www.w3.org/2000/svg"
   id="svg4918"
   version="1.1"
   viewBox="0 0 21.266209 5.8208332"
   height="5.8208332mm"
   width="21.266209mm">
  <defs
     id="defs4912" />
  <metadata
     id="metadata4915">
    <rdf:RDF>
      <cc:Work
         rdf:about="">
        <dc:format>image/svg+xml</dc:format>
        <dc:type
           rdf:resource="http://purl.org/dc/dcmitype/StillImage" />
        <dc:title></dc:title>
      </cc:Work>
    </rdf:RDF>
  </metadata>
  <g
     transform="translate(-95.200229,-145.25626)"
     id="layer1">
    <g
       id="g2176"
       transform="matrix(0.52916664,0,0,0.52916664,79.993706,114.7846)">
      <path
         id="path845"
         style="fill:#ff9008;fill-opacity:1;stroke:#ffffff;stroke-width:0.423333;stroke-opacity:1"
         d="m 43.694042,67.052983 c -1.417898,0 -2.728089,-0.75644 -3.437038,-1.984375 -0.708949,-1.227936 -0.708949,-2.740814 0,-3.96875 0.708949,-1.227935 2.01914,-1.984375 3.437038,-1.984375 h 8.466675 c 2.19188,0 3.96875,1.77687 3.96875,3.96875 0,2.19188 -1.77687,3.96875 -3.96875,3.96875 z" />
      <circle
         style="fill:#fff9f3;fill-opacity:1;stroke:#000000;stroke-width:0.423333"
         id="circle843"
         cx="43.694042"
         cy="63.084236"
         r="2.6458333" />
      <path
         id="path2095"
         fill="#b3b3b3"
         d="m 36.186683,67.441996 c 0.758722,-0.426492 1.362978,-1.021487 1.792634,-1.711662 -0.123429,0.08716 -0.252466,0.168876 -0.387056,0.244527 -2.122706,1.19321 -4.810867,0.439666 -6.00402,-1.683041 -1.193153,-2.122708 -0.439666,-4.810868 1.683041,-6.00402 0.13459,-0.07565 0.27148,-0.14342 0.410096,-0.203567 -0.812943,0.0083 -1.635349,0.215245 -2.394071,0.641708 -2.406873,1.35291 -3.261323,4.400973 -1.908355,6.8077 1.352969,2.40673 4.400974,3.261323 6.807702,1.908527 z"
         style="fill:#ffffff;fill-opacity:1;stroke-width:0.0287645" />
      <g
         style="stroke:#ffffff;stroke-width:9.25758;stroke-linecap:round;stroke-miterlimit:4;stroke-dasharray:none;stroke-opacity:1"
         id="g2115"
         transform="matrix(0.10801959,0,0,0.10801959,60.519649,55.529543)">
        <ellipse
           style="display:inline;fill:none;fill-opacity:1;stroke:#ffffff;stroke-width:9.25758;stroke-linecap:round;stroke-miterlimit:4;stroke-dasharray:none;stroke-opacity:1"
           id="ellipse2097"
           cx="27.240038"
           cy="69.952316"
           rx="22.867559"
           ry="23.056549" />
        <path
           style="display:inline;fill:none;fill-rule:evenodd;stroke:#ffffff;stroke-width:9.25758;stroke-linecap:round;stroke-linejoin:miter;stroke-miterlimit:4;stroke-dasharray:none;stroke-opacity:1"
           d="m 27.429025,40.848163 v -17.197917 0"
           id="path2099" />
        <path
           style="display:inline;fill:none;fill-rule:evenodd;stroke:#ffffff;stroke-width:9.25758;stroke-linecap:round;stroke-linejoin:miter;stroke-miterlimit:4;stroke-dasharray:none;stroke-opacity:1"
           d="m 27.429025,116.22605 v -17.197897 0"
           id="path2101" />
        <path
           style="display:inline;fill:none;fill-rule:evenodd;stroke:#ffffff;stroke-width:9.25758;stroke-linecap:round;stroke-linejoin:miter;stroke-miterlimit:4;stroke-dasharray:none;stroke-opacity:1"
           d="m 55.98513,69.602701 h 17.19791 v 0"
           id="path2103" />
        <path
           style="display:inline;fill:none;fill-rule:evenodd;stroke:#ffffff;stroke-width:9.25758;stroke-linecap:round;stroke-linejoin:miter;stroke-miterlimit:4;stroke-dasharray:none;stroke-opacity:1"
           d="m -18.816361,69.385364 h 17.1979166 v 0"
           id="path2105" />
        <path
           style="display:inline;fill:none;fill-rule:evenodd;stroke:#ffffff;stroke-width:9.25758;stroke-linecap:round;stroke-linejoin:miter;stroke-miterlimit:4;stroke-dasharray:none;stroke-opacity:1"
           d="m -6.0976034,37.937606 12.160764,12.160763 v 0"
           id="path2107" />
        <path
           style="display:inline;fill:none;fill-rule:evenodd;stroke:#ffffff;stroke-width:9.25758;stroke-linecap:round;stroke-linejoin:miter;stroke-miterlimit:4;stroke-dasharray:none;stroke-opacity:1"
           d="m 47.79235,90.344903 12.16077,12.160767 v 0"
           id="path2109" />
        <path
           style="display:inline;fill:none;fill-rule:evenodd;stroke:#ffffff;stroke-width:9.25758;stroke-linecap:round;stroke-linejoin:miter;stroke-miterlimit:4;stroke-dasharray:none;stroke-opacity:1"
           d="M 48.17033,49.777993 60.33109,37.61723 v 0"
           id="path2111" />
        <path
           style="display:inline;fill:none;fill-rule:evenodd;stroke:#ffffff;stroke-width:9.25758;stroke-linecap:round;stroke-linejoin:miter;stroke-miterlimit:4;stroke-dasharray:none;stroke-opacity:1"
           d="M -5.8802664,102.09844 6.2804976,89.937683 v 0"
           id="path2113" />
      </g>
    </g>
  </g>
</svg>
