<?xml version="1.0" encoding="UTF-8" standalone="no"?>
<svg
   xmlns:dc="http://purl.org/dc/elements/1.1/"
   xmlns:cc="http://creativecommons.org/ns#"
   xmlns:rdf="http://www.w3.org/1999/02/22-rdf-syntax-ns#"
   xmlns:svg="http://www.w3.org/2000/svg"
   xmlns="http://www.w3.org/2000/svg"
   id="svg4192"
   version="1.1"
   viewBox="0 0 21.266203 5.8208342"
   height="5.8208342mm"
   width="21.266203mm">
  <defs
     id="defs4186" />
  <metadata
     id="metadata4189">
    <rdf:RDF>
      <cc:Work
         rdf:about="">
        <dc:format>image/svg+xml</dc:format>
        <dc:type
           rdf:resource="http://purl.org/dc/dcmitype/StillImage" />
        <dc:title></dc:title>
      </cc:Work>
    </rdf:RDF>
  </metadata>
  <g
     transform="translate(-126.95023,-65.88125)"
     id="layer1">
    <g
       id="g4812">
      <path
         d="m 134.86513,70.891798 c -0.7503,0 -1.44361,-0.400282 -1.81876,-1.050065 -0.37515,-0.649782 -0.37515,-1.450347 0,-2.10013 0.37515,-0.649782 1.06846,-1.050065 1.81876,-1.050065 h 4.48029 c 1.15987,0 2.10013,0.94026 2.10013,2.10013 0,1.15987 -0.94026,2.10013 -2.10013,2.10013 z"
         style="fill:#088dff;fill-opacity:1;stroke:#000000;stroke-width:0.224014"
         id="path851" />
      <circle
         style="fill:#ffffff;fill-opacity:1;stroke:#000000;stroke-width:0.224014"
         id="circle853"
         cx="139.34541"
         cy="68.791672"
         r="1.4000868" />
      <path
         style="fill:#000000;fill-opacity:1;stroke-width:0.0152212"
         d="m 130.89249,71.097651 c 0.40149,-0.225685 0.72124,-0.540537 0.9486,-0.905754 -0.0653,0.04612 -0.13359,0.08936 -0.20481,0.129395 -1.12327,0.631407 -2.54576,0.232657 -3.17713,-0.890609 -0.63138,-1.123266 -0.23266,-2.545751 0.89061,-3.177127 0.0712,-0.04003 0.14366,-0.07589 0.21701,-0.107721 -0.43019,0.0044 -0.86538,0.113901 -1.26687,0.339571 -1.27363,0.715914 -1.72578,2.328848 -1.00983,3.602407 0.71594,1.273562 2.32884,1.725784 3.6024,1.009929 z"
         fill="#b3b3b3"
         id="path2141" />
      <ellipse
         style="display:inline;fill:none;fill-opacity:1;stroke:#000000;stroke-width:0.529167;stroke-linecap:round;stroke-miterlimit:4;stroke-dasharray:none;stroke-opacity:1"
         id="ellipse2097-7"
         cx="145.32573"
         cy="68.792473"
         rx="1.3071181"
         ry="1.3179207" />
      <path
         style="display:inline;fill:none;fill-rule:evenodd;stroke:#000000;stroke-width:0.529167;stroke-linecap:round;stroke-linejoin:miter;stroke-miterlimit:4;stroke-dasharray:none;stroke-opacity:1"
         d="m 145.33654,67.128873 v -0.98304 0"
         id="path2099-3" />
      <path
         style="display:inline;fill:none;fill-rule:evenodd;stroke:#000000;stroke-width:0.529167;stroke-linecap:round;stroke-linejoin:miter;stroke-miterlimit:4;stroke-dasharray:none;stroke-opacity:1"
         d="m 145.33654,71.4375 v -0.983038 0"
         id="path2101-2" />
      <path
         style="display:inline;fill:none;fill-rule:evenodd;stroke:#000000;stroke-width:0.529167;stroke-linecap:round;stroke-linejoin:miter;stroke-miterlimit:4;stroke-dasharray:none;stroke-opacity:1"
         d="m 146.96882,68.772492 h 0.98303 v 0"
         id="path2103-5" />
      <path
         style="display:inline;fill:none;fill-rule:evenodd;stroke:#000000;stroke-width:0.529167;stroke-linecap:round;stroke-linejoin:miter;stroke-miterlimit:4;stroke-dasharray:none;stroke-opacity:1"
         d="m 142.69314,68.760069 h 0.98303 v 0"
         id="path2105-6" />
      <path
         style="display:inline;fill:none;fill-rule:evenodd;stroke:#000000;stroke-width:0.529167;stroke-linecap:round;stroke-linejoin:miter;stroke-miterlimit:4;stroke-dasharray:none;stroke-opacity:1"
         d="m 143.42014,66.962504 0.69512,0.695114 v 0"
         id="path2107-3" />
      <path
         style="display:inline;fill:none;fill-rule:evenodd;stroke:#000000;stroke-width:0.529167;stroke-linecap:round;stroke-linejoin:miter;stroke-miterlimit:4;stroke-dasharray:none;stroke-opacity:1"
         d="m 146.50051,69.958124 0.69512,0.695114 v 0"
         id="path2109-4" />
      <path
         style="display:inline;fill:none;fill-rule:evenodd;stroke:#000000;stroke-width:0.529167;stroke-linecap:round;stroke-linejoin:miter;stroke-miterlimit:4;stroke-dasharray:none;stroke-opacity:1"
         d="m 146.52212,67.639305 0.69511,-0.695114 v 0"
         id="path2111-0" />
      <path
         style="display:inline;fill:none;fill-rule:evenodd;stroke:#000000;stroke-width:0.529167;stroke-linecap:round;stroke-linejoin:miter;stroke-miterlimit:4;stroke-dasharray:none;stroke-opacity:1"
         d="m 143.43257,70.629961 0.69511,-0.695114 v 0"
         id="path2113-6" />
    </g>
  </g>
</svg>
